<?xml version="1.0"?>
<svg xmlns="http://www.w3.org/2000/svg" xmlns:xlink="http://www.w3.org/1999/xlink" version="1.1" id="Capa_1" x="0px" y="0px" viewBox="0 0 392 392" style="enable-background:new 0 0 392 392;" xml:space="preserve" width="512px" height="512px"><g><g>
	<g>
		<path d="M375.64,248.559L220,248.399v16c-0.022,7.634-6.206,13.818-13.84,13.84h-20.28c-7.582,0.023-13.77-6.059-13.88-13.64v-16    H16.52c-5.962-0.023-11.757-1.973-16.52-5.56v92c0.044,10.254,8.346,18.556,18.6,18.6h354.48    c10.316,0.133,18.787-8.121,18.92-18.437c0-0.001,0-0.002,0-0.003v-92C387.256,246.682,381.525,248.56,375.64,248.559z" data-original="#000000" class="active-path" data-old_color="#f57f17" fill="#f57f17"/>
	</g>
</g><g>
	<g>
		<path d="M373.24,90.439C373.24,90.439,373.24,90.439,373.24,90.439H272v-28.28c-0.011-6.307-2.529-12.351-7-16.8    c-4.449-4.471-10.493-6.989-16.8-7H143.64c-13.255,0-24,10.745-24,24v28.28H18.76C8.521,90.594,0.153,98.801,0,109.039v111.56    c0.022,9.026,7.334,16.338,16.36,16.36H172v-16c0.022-7.635,6.206-13.818,13.84-13.84h20.24c7.597-0.045,13.81,6.043,13.92,13.64    v16h155.52c8.996,0.045,16.348-7.165,16.48-16.16v-111.56C391.956,98.723,383.557,90.395,373.24,90.439z M247.68,90.439H144.32    v-27.6h103.36V90.439z" data-original="#000000" class="active-path" data-old_color="#f57f17" fill="#f57f17"/>
	</g>
</g></g> </svg>
